<svg xmlns="http://www.w3.org/2000/svg" width="194" height="195" viewBox="0 0 194 195"><defs><style>.cls-1{fill:#fff;fill-rule:evenodd;}</style></defs><path id="shape" class="cls-1" d="M137.176,0.981H56.822A56.639,56.639,0,0,0,.247,57.556v80.353a56.639,56.639,0,0,0,56.575,56.575h80.354a56.64,56.64,0,0,0,56.575-56.575V57.556A56.639,56.639,0,0,0,137.176.981Zm38.536,136.928a38.581,38.581,0,0,1-38.536,38.536H56.822a38.58,38.58,0,0,1-38.537-38.536V57.556A38.58,38.58,0,0,1,56.822,19.019h80.354a38.581,38.581,0,0,1,38.536,38.537v80.353ZM148.7,34.071a12.058,12.058,0,1,0,12.058,12.058A12.056,12.056,0,0,0,148.7,34.071ZM97,47.716a50.016,50.016,0,1,0,50.016,50.017A50.073,50.073,0,0,0,97,47.716Zm0,81.993a31.977,31.977,0,1,1,31.977-31.976A32.012,32.012,0,0,1,97,129.709Z"/></svg>