<svg xmlns="http://www.w3.org/2000/svg" width="202" height="82" viewBox="0 0 202 82">
  <defs>
    <style>
      .cls-1 {
        fill: #515151;
      }

      .cls-1, .cls-2 {
        fill-rule: evenodd;
      }

      .cls-2 {
        fill: #deb068;
      }
    </style>
  </defs>
  <path id="shape1" class="cls-1" d="M16.326,16.482V30.8a1.607,1.607,0,0,1-1.653,1.658A1.588,1.588,0,0,1,13.02,30.8V28.05C11.085,28.685,3.98,30.8,2.784,30.8A1.637,1.637,0,0,1,1.1,29.144a1.6,1.6,0,0,1,1.442-1.657c0.95-.141,2.005-0.353,3.1-0.565V16.482l-2.955.035A1.512,1.512,0,0,1,.99,15a1.637,1.637,0,0,1,1.688-1.658H30.467A1.514,1.514,0,0,1,32.05,14.93a1.532,1.532,0,0,1-1.583,1.587Zm1.091-4.338c-2.427,0-4.819-.035-7.035-0.071-3.763-.035-3.834-2.045-3.834-5.326,0-2.716,0-5.044,3.728-5.255,1.232-.071,3.2-0.071,5.312-0.071,2.885,0,6.05.035,7.95,0.071,3.342,0.105,3.412,2.716,3.412,5.4,0,2.892-.141,5.08-3.588,5.185C21.427,12.108,19.422,12.143,17.417,12.143Zm-4.4,4.339H8.9v1.587H13.02V16.482Zm0,3.845H8.9v1.587H13.02V20.327Zm0,3.844H8.9v2.081c1.512-.318,2.955-0.705,4.116-0.988V24.171ZM23.4,5.583c0-.141-0.035-0.246-0.035-0.352C23.291,4.1,23.15,4.1,17.065,4.1c-2.287,0-4.573.035-5.628,0.07S10.1,4.63,10.065,5.3l-0.035.282H23.4ZM10.03,8.051c0,0.212.035,0.353,0.035,0.53,0.071,0.74.423,0.988,1.407,0.988H22.13a1.067,1.067,0,0,0,1.232-1.023c0-.14.035-0.318,0.035-0.494H10.03Zm8.02,12.8a1.4,1.4,0,0,1-1.407-1.517,1.448,1.448,0,0,1,1.372-1.587c1.055,0,2.075-.036,3.13-0.036,1.829,0,3.624.036,5.418,0.106a2.133,2.133,0,0,1,2.356,2.293c0,0.741-.492,3.316-3.06,6.561A16.569,16.569,0,0,0,30.291,28.4a1.6,1.6,0,0,1,1.266,1.622,1.915,1.915,0,0,1-1.97,1.94c-1.548,0-4.4-1.482-6.156-2.787-1.759,1.446-3.869,2.611-4.819,2.611a1.834,1.834,0,0,1-1.794-1.835,1.527,1.527,0,0,1,1.126-1.481,12.6,12.6,0,0,0,2.919-1.516c-1.583-1.622-3.025-3.6-3.025-4.374A1.915,1.915,0,0,1,19.774,21a1.146,1.146,0,0,1,1.09.6,12.888,12.888,0,0,0,2.357,3.1,8.9,8.9,0,0,0,1.759-3.6,0.355,0.355,0,0,0-.387-0.317H23.467c-1.547,0-3.236.036-5.381,0.071H18.05Zm27.508-3.245c-0.07.811-.141,1.622-0.282,2.469,1.583,0.987,4.89,3.351,4.89,5.115a2.02,2.02,0,0,1-1.9,2.045,1.754,1.754,0,0,1-1.477-.952,14.954,14.954,0,0,0-2.357-2.751c-1.548,4.586-5.346,8.042-7,8.042a1.924,1.924,0,0,1-1.935-1.9,1.862,1.862,0,0,1,.949-1.551c4.222-2.646,5.347-6.807,5.593-10.511h-4.01a1.717,1.717,0,1,1,0-3.422h4.081V9.356H41.548c-0.879,2.257-1.829,4.268-3.588,4.268a1.684,1.684,0,0,1-1.83-1.552,2.165,2.165,0,0,1,.493-1.3,19.734,19.734,0,0,0,3.2-8.641A1.447,1.447,0,0,1,41.407,1c1.021,0,2.146.635,2.146,1.623a20.089,20.089,0,0,1-.809,3.315H47.88a1.753,1.753,0,0,1,1.9,1.728A1.692,1.692,0,0,1,47.95,9.392H47.88l-2.251-.071c0.035,1.481.035,3.421,0.035,4.867h2.954a1.715,1.715,0,1,1,0,3.422h-3.06Zm3.834,13.473a1.678,1.678,0,0,1-1.829-1.657,1.659,1.659,0,0,1,1.829-1.658h8.794a25.688,25.688,0,0,0,2.251-5.4,1.66,1.66,0,0,1,1.653-1.27,2.06,2.06,0,0,1,2.146,1.8c0,0.53-.844,2.293-2.5,4.868h4.5A1.664,1.664,0,0,1,68,29.461a1.611,1.611,0,0,1-1.759,1.622H49.392Zm1.653-24.9a1.768,1.768,0,1,1,0-3.527H65.327a1.756,1.756,0,0,1,1.865,1.8,1.722,1.722,0,0,1-1.865,1.729H51.045ZM65.116,11.9c0.07,0.847.105,2.61,0.105,3.88,0,3.175-.386,4.621-7.21,4.621-5.628,0-6.859-.741-6.859-4.338,0-1.376.035-3.386,0.106-4.162a3.351,3.351,0,0,1,3.517-3.28c1.2-.071,2.287-0.071,3.377-0.071s2.146,0,3.307.071A3.681,3.681,0,0,1,65.116,11.9ZM54.141,26.358a10.4,10.4,0,0,0-1.688-2.751A1.418,1.418,0,0,1,52,22.619a1.745,1.745,0,0,1,1.794-1.552c1.337,0,3.694,3,3.694,4.339a2,2,0,0,1-1.9,1.975A1.525,1.525,0,0,1,54.141,26.358ZM61.6,12.813c-0.141-.952-0.95-1.059-3.412-1.059-0.774,0-1.513.036-2.392,0.106-1.231.035-1.231,0.564-1.231,3.421,0,1.657.035,1.975,3.518,1.975,2.533,0,3.588-.07,3.588-1.269C61.668,15.282,61.668,13.377,61.6,12.813ZM86.258,9.137c3.868-1.131,6.639-1.875,8.961-1.875A2.145,2.145,0,0,1,97.6,9.428c0,1.164-.71,1.875-2.773,1.875a6.123,6.123,0,0,1-.74-0.033H93.639a12.927,12.927,0,0,0-4.255.906,8.741,8.741,0,0,0-5.157,7.757c0,3.458,2.385,6.69,7,6.69h0.354c2.127-.064,3,1.131,3,2.133s-0.871,2-2.772,2c-6.93,0-11.024-4.848-11.024-10.343a11.462,11.462,0,0,1,2.127-6.626,1.426,1.426,0,0,0,.29-0.485c0-.065-0.032-0.1-0.128-0.1a1.6,1.6,0,0,0-.452.1A22.389,22.389,0,0,0,79.1,14.89a10.032,10.032,0,0,1-3.578,1.1,2.093,2.093,0,0,1-2.16-2.134,2.034,2.034,0,0,1,1.74-2C76.49,11.594,81.1,10.592,86.258,9.137Zm8.735,10.6a13.154,13.154,0,0,0-2.643-1.906,1.311,1.311,0,0,1-.935-1.2,1.571,1.571,0,0,1,1.611-1.454c0.935,0,3.384,1.486,4,2.133a1.684,1.684,0,0,1,.484,1.131,1.79,1.79,0,0,1-1.58,1.778A1.273,1.273,0,0,1,94.993,19.738ZM98.506,16.6A13.067,13.067,0,0,0,95.8,14.826a1.287,1.287,0,0,1-.967-1.164,1.664,1.664,0,0,1,1.677-1.519c0.419,0,4.416,1.293,4.416,3.167a1.72,1.72,0,0,1-1.515,1.713A1.238,1.238,0,0,1,98.506,16.6ZM7.206,71.078a2.135,2.135,0,1,1,0-4.251H30.08c0-3.454-.265-3.808-2.031-3.852-1.987-.089-5.829-0.133-9.891-0.133-4.637,0-9.538.044-11.967,0.133H6.1a2.031,2.031,0,0,1-2.208-2.081,2.265,2.265,0,0,1,2.384-2.258c2.164-.044,6.226-0.044,10.465-0.044L16.656,43.98a2.3,2.3,0,0,1,2.561-2.214,2.37,2.37,0,0,1,2.605,2.214L21.735,58.636c3,0,5.652.044,7.2,0.089,3.842,0.133,5.564,1.86,5.785,5.092,0.088,1.683.177,3.852,0.177,5.978,0,6.42-.088,9.963-5.961,10.14-2.959.088-8.522,0.133-13.6,0.133-3.621,0-6.933,0-8.964-.044a2.311,2.311,0,0,1-2.429-2.3,2.088,2.088,0,0,1,2.208-2.125H6.235c2.3,0.044,6.138.089,10.068,0.089,4.769,0,9.671-.044,11.967-0.089,1.1-.044,1.59-0.31,1.678-1.638l0.088-2.878H7.206ZM9.459,55.049A19.493,19.493,0,0,0,5.087,50.4a2.135,2.135,0,0,1-.971-1.683,2.672,2.672,0,0,1,2.694-2.48c2.34,0,6.756,5.358,7.021,5.845a3.167,3.167,0,0,1,.4,1.461,2.863,2.863,0,0,1-2.738,2.834A2.286,2.286,0,0,1,9.459,55.049Zm17.133,1.328a2.371,2.371,0,0,1-2.429-2.3A2.546,2.546,0,0,1,25,52.3a42.345,42.345,0,0,0,4.858-6.066,2.154,2.154,0,0,1,1.9-1.107,2.96,2.96,0,0,1,2.826,2.745,2.414,2.414,0,0,1-.574,1.55C29.506,55.227,27.961,56.378,26.592,56.378ZM63.959,79.8c-1.9.089-4.195,0.089-6.4,0.089s-4.416,0-6.182-.089c-3.93-.133-6.315-1.86-6.447-5.446-0.088-2.878-.133-7.793-0.133-12.752,0-4.384.044-8.811,0.133-11.778,0.088-2.568,2.075-4.649,6.005-4.782,1.678-.044,4.416-0.088,7.154-0.088,2.208,0,4.416.044,5.917,0.088,3.312,0.133,5.785,2.347,5.873,5.269,0.088,2.7.133,7.218,0.133,11.69,0,4.959-.044,9.874-0.133,12.221C69.788,77.366,67.58,79.669,63.959,79.8Zm1.1-20.855c0-2.612-.088-5.048-0.132-6.73-0.044-2.878-1.1-2.922-7.419-2.922-6.712,0-7.772,0-7.86,2.922-0.044,1.727-.088,4.118-0.088,6.73h15.5Zm-15.5,4.472c0,3.5,0,6.863.088,8.9,0.132,2.745,1.192,2.834,7.772,2.834,1.634,0,3.268,0,4.416-.044,2.384-.089,3.047-1.2,3.091-2.922,0.088-2.17.132-5.4,0.132-8.767h-15.5Zm29.084,7.194a36.429,36.429,0,0,1,.193-3.769c0.385-3.705,1.157-7.023,1.446-8.956a1.86,1.86,0,0,1,1.832-1.772,1.724,1.724,0,0,1,1.8,1.643,1.222,1.222,0,0,1-.032.322c-0.257,1.354-1.253,5.187-1.7,8.473a23.474,23.474,0,0,0-.289,3.157,7.3,7.3,0,0,0,.1,1.225,0.242,0.242,0,0,0,.1.193,0.137,0.137,0,0,0,.1-0.1c0.45-1.127,1-1.708,1.7-1.708a1.578,1.578,0,0,1,1.478,1.546,1.2,1.2,0,0,1-.161.645c-1.735,3.093-1.831,4.22-1.831,5.412a1.893,1.893,0,0,1-1.8,2.159C79.322,79.085,78.648,73.931,78.648,70.612Zm16.643,7.024c-3.728,0-7.326-1.418-7.326-3.448a1.884,1.884,0,0,1,1.8-1.9,2.018,2.018,0,0,1,1.317.548,5.045,5.045,0,0,0,3.309.9,23.2,23.2,0,0,0,4.4-.547,3.479,3.479,0,0,1,.578-0.064,1.727,1.727,0,0,1,1.8,1.836,2.153,2.153,0,0,1-1.638,2.159A17.415,17.415,0,0,1,95.291,77.636Zm2.924-15.014a3.134,3.134,0,0,1-.514-0.064,15.8,15.8,0,0,0-3.5-.386,15.059,15.059,0,0,0-3.694.45,2.171,2.171,0,0,1-.418.065,1.745,1.745,0,0,1-.1-3.48,20.185,20.185,0,0,1,4.755-.58c3.759,0,5.2.709,5.2,2.288A1.681,1.681,0,0,1,98.215,62.622ZM121.96,61.6c-2.3,0-4.5-.044-6.536-0.133-3.753-.133-5.784-1.993-5.873-5.889,0-1.2-.044-2.391-0.044-3.631,0-1.2.044-2.391,0.044-3.587a2.574,2.574,0,0,1,5.123-.133v0.133c-0.044,1.284-.089,2.48-0.089,3.631,0,0.8.045,1.594,0.045,2.347,0.088,2.789,1.1,2.789,7.33,2.789V44.6a2.3,2.3,0,0,1,2.561-2.214A2.385,2.385,0,0,1,127.17,44.6V57.131L132.249,57c2.605-.088,2.693-1.9,2.693-4.384,0-1.373-.088-2.7-0.132-4.118V48.363a2.266,2.266,0,0,1,2.517-2.214,2.444,2.444,0,0,1,2.649,2.3c0.044,1.107.088,2.258,0.088,3.454,0,1.151-.044,2.347-0.088,3.587-0.132,3.985-3,5.845-6.27,5.978-2.12.088-4.328,0.133-6.536,0.133l-0.044,13.549c2.517,0,4.9-.044,6.8-0.133,2.472-.088,2.693-1.815,2.693-4.959,0-1.373-.088-2.79-0.132-4.074V65.854a2.277,2.277,0,0,1,2.472-2.214,2.48,2.48,0,0,1,2.65,2.347c0.044,1.417.088,3.011,0.088,4.605,0,0.974,0,1.993-.044,2.922-0.132,3.985-2.958,5.933-6.27,6.066-3.047.133-7.11,0.177-11.084,0.177s-7.86-.044-10.554-0.177c-3.753-.133-5.784-2.081-5.873-5.978,0-1.2-.044-2.524-0.044-3.9,0-1.328.044-2.657,0.044-3.852A2.574,2.574,0,0,1,113,65.721v0.133c-0.044,1.284-.089,2.657-0.089,3.941,0,0.93.045,1.816,0.045,2.568,0,1.683.485,2.568,2.428,2.657,1.855,0.089,4.2.133,6.624,0.133Zm30.611,3.675c-2.87,2.878-3.179,3.144-4.195,3.144a2.666,2.666,0,0,1-2.517-2.657,2.317,2.317,0,0,1,1.06-1.9,29.321,29.321,0,0,0,9.008-11.07,2.139,2.139,0,0,1,1.987-1.328,2.705,2.705,0,0,1,2.694,2.524c0,0.354-.088,1.328-3.4,5.889l-0.221,19.439a2.341,2.341,0,0,1-2.517,2.214,2.107,2.107,0,0,1-2.3-2.125V79.314Zm21.373-15.719v1.284a2.145,2.145,0,0,1-2.385,2.037,2.045,2.045,0,0,1-2.3-1.9V49.515h-6.226v0.221a2.183,2.183,0,0,1-2.429,2.037,2,2,0,0,1-2.252-1.86V49.559h-8.832a2.108,2.108,0,1,1,0-4.206l8.832,0.044v-1.9a2.118,2.118,0,0,1,2.34-1.948,2.094,2.094,0,0,1,2.341,1.948v1.9h6.226v-1.9a2.118,2.118,0,0,1,2.34-1.948,2.1,2.1,0,0,1,2.341,1.948v1.9l9.185-.044a2.106,2.106,0,1,1,0,4.206h-9.185Zm-5.476,24c-0.618.044-1.59,0.044-2.6,0.044s-2.032,0-2.738-.044a3.537,3.537,0,0,1-3.489-3.365c0-1.151-.044-2.347-0.044-3.454,0-1.151.044-2.258,0.044-3.144a3.442,3.442,0,0,1,3.4-3.321c0.883-.044,1.987-0.089,3-0.089s1.987,0.044,2.606.089c1.987,0.133,3.576,1.284,3.621,3.055,0.044,0.974.044,2.214,0.044,3.454s0,2.435-.044,3.365C172.221,72.008,170.676,73.381,168.468,73.558Zm12.232,1.55V75.2c0,2.878-2.208,5.845-8.434,5.845-2.959,0-5.476-.177-5.476-2.7a2.162,2.162,0,0,1,2.12-2.3,1.647,1.647,0,0,1,.441.044,23.75,23.75,0,0,0,3.577.4c1.766,0,2.826-.531,2.826-2.258,0-4.074.088-10.76,0.088-16.029h-13.2a2.159,2.159,0,1,1,0-4.295h20.225a2.175,2.175,0,1,1,0,4.295h-2.3c0,3.631,0,7.837.045,10.583Zm-12.453-8.324c0-.8,0-1.55-0.044-2.214,0-.8-0.927-0.886-2.3-0.886-1.546,0-2.3,0-2.3.93-0.044.487-.044,1.151-0.044,1.815,0,0.886,0,1.86.044,2.612,0,0.177.132,0.93,1.413,0.93,2.252,0,3.179-.044,3.179-1.018C168.247,68.289,168.247,67.536,168.247,66.783Zm29.859,13.239a3.321,3.321,0,1,1,.045-6.642,3.155,3.155,0,0,1,3.311,3.365A3.25,3.25,0,0,1,198.106,80.023Zm-2.119-11.955c0-3.941-.574-14.479-0.839-22.1V45.839a2.736,2.736,0,0,1,2.914-2.745,2.839,2.839,0,0,1,3,2.878c0,5.181-.839,17.534-0.839,21.741v0.62a2.272,2.272,0,0,1-2.164,2.524,2.124,2.124,0,0,1-2.075-2.347V68.067Z"/>
  <path id="mark" class="cls-2" d="M116.159,1h19.689A1.155,1.155,0,0,1,137,2.158V20.291a1.155,1.155,0,0,1-1.156,1.154H116.159A1.156,1.156,0,0,1,115,20.291V2.158A1.156,1.156,0,0,1,116.159,1ZM142.8,28.4a3.9,3.9,0,1,0,3.9-3.887A3.894,3.894,0,0,0,142.8,28.4Zm2.144,0a1.754,1.754,0,1,1,1.754,1.751A1.752,1.752,0,0,1,144.948,28.4Zm-25.168,0a3.9,3.9,0,1,0,3.9-3.887A3.894,3.894,0,0,0,119.78,28.4Zm2.144,0a1.754,1.754,0,1,1,1.754,1.751A1.752,1.752,0,0,1,121.924,28.4Zm17.122-20.98V25.974h2.219a5.96,5.96,0,0,1,10.876,0h2.953a0.963,0.963,0,0,0,.965-0.962V14.951a0.955,0.955,0,0,0-.224-0.616L149.542,6.8a0.962,0.962,0,0,0-.74-0.346h-8.791A0.963,0.963,0,0,0,139.046,7.419Zm13.49,8.3a0.993,0.993,0,0,1-.994.992h-7.954a0.993,0.993,0,0,1-1-.992v-5.6a0.993,0.993,0,0,1,1-.993h3.935a1,1,0,0,1,.773.367l4.018,4.935a0.989,0.989,0,0,1,.222.626v0.665ZM136.53,23.267a0.541,0.541,0,0,1,.542.542v1.624a0.541,0.541,0,0,1-.542.541h-7.415a5.981,5.981,0,0,0-2.439-2.706h9.854Zm-20.918,0h5.068a5.984,5.984,0,0,0-2.44,2.706h-2.628a0.542,0.542,0,0,1-.542-0.541V23.809A0.542,0.542,0,0,1,115.612,23.267Z"/>
</svg>
