<svg xmlns="http://www.w3.org/2000/svg" width="102" height="147" viewBox="0 0 102 147"><defs><style>.cls-1{fill:#fff;fill-rule:evenodd;}</style></defs><path id="shape" class="cls-1" d="M11.993,145.99C6.708,145.99,1,141.912,1,135.322a11.63,11.63,0,0,1,2.284-6.106,27.026,27.026,0,0,1,3.556-3.653L68.576,75.125a2.023,2.023,0,0,0,0-3.256L6.84,21.431a26.971,26.971,0,0,1-3.555-3.653A11.615,11.615,0,0,1,1,11.694C1,5.082,6.708,1,11.993,1a10.574,10.574,0,0,1,4.62,1.189,39.344,39.344,0,0,1,4.273,2.86l74.13,58.632a26.6,26.6,0,0,1,3.608,3.6s2.391,3.017,2.391,6.21-2.391,6.21-2.391,6.21a26.615,26.615,0,0,1-3.608,3.6L20.886,141.941a38.754,38.754,0,0,1-4.207,2.823A21.582,21.582,0,0,1,11.993,145.99Z"/></svg>