<svg xmlns="http://www.w3.org/2000/svg" width="1713" height="102" viewBox="0 0 1713 102"><defs><style>.cls-1{fill: #515151;}.cls-1,.cls-2{fill-rule:evenodd;}.cls-2{fill:#383c3c;}</style></defs><path id="text" class="cls-1" d="M39.917,36.211H52.991c1.895,0,5.053,0,5.053-3.6,0-3.537-3.158-3.537-5.053-3.537H20.907a7.12,7.12,0,0,0,.947-3.1c0-1.895-2.274-3.474-3.979-3.474A3.97,3.97,0,0,0,14.654,24.4c-1.579,2.148-5.432,7.643-7.705,10.043-3.6,3.727-3.979,4.169-3.979,5.685A3.745,3.745,0,0,0,6.7,43.917a4.029,4.029,0,0,0,2.4-.695,42.2,42.2,0,0,0,6.884-7.011H32.149V42.4H16.991c-1.768,0-5.431,1.263-5.431,6.443V58.7H7.265c-3.032,0-5.053,0-5.053,3.727,0,3.348,2.4,3.348,5.053,3.348H32.149v9.917c0,3.537.316,5.179,3.979,5.179,3.789,0,3.789-2.4,3.789-5.179V65.772H54.38c2.968,0,5.053,0,5.053-3.727,0-3.348-2.463-3.348-5.053-3.348H39.917V49.349H50.97c1.958,0,5.053,0,5.053-3.348,0-3.6-3.347-3.6-5.053-3.6H39.917v-6.19ZM32.149,58.7H19.2V51.244c0-1.2,0-1.895,1.579-1.895H32.149V58.7ZM99.785,73.162a4.311,4.311,0,0,0-.442,1.769c0,2.084,1.7,2.716,3.347,3.348a75.08,75.08,0,0,0,15.6,3.663c2.021,0,3.095-1.705,3.095-3.6,0-2.527-2.337-2.905-3.663-3.158a47.941,47.941,0,0,1-8.842-2.021h2.905a4.74,4.74,0,0,0,4.99-4.169V49.16a4.783,4.783,0,0,0-4.99-4.169H75.533A4.806,4.806,0,0,0,70.48,49.16V68.993a4.806,4.806,0,0,0,5.053,4.169h3.6c-2.274.632-2.779,0.758-4.042,1.074-0.947.189-5.874,1.011-6.947,1.2a2.7,2.7,0,0,0-2.274,2.842c0,2.084.947,3.727,3.221,3.727a63.519,63.519,0,0,0,16.168-3.664,3.013,3.013,0,0,0,1.958-2.716,4.9,4.9,0,0,0-.758-2.463H99.785Zm9.347-15.475V60.15h-31.2V57.687h31.2Zm-31.2-4.421c0-1.642,0-2.4,1.705-2.4h27.789c1.7,0,1.7.758,1.7,2.4h-31.2Zm31.2,11.369c0,2.021,0,2.716-1.7,2.716H79.638c-1.705,0-1.705-.695-1.705-2.716h31.2ZM100.8,24.779a4.167,4.167,0,0,0-4.232,4.3v9.411a4.131,4.131,0,0,0,4.232,4.3h15.663a4.131,4.131,0,0,0,4.231-4.3V29.074a4.167,4.167,0,0,0-4.231-4.3H100.8Zm11.558,6.632c1.2,0,1.389.632,1.389,1.705v1.832c0,0.821,0,1.705-1.389,1.705h-7.39c-1.137,0-1.326-.632-1.326-1.705V33.116c0-.821,0-1.705,1.326-1.705h7.39Zm-31.2-4.737c0-1.832,0-4.232-3.41-4.232-3.221,0-3.347,2.148-3.537,4.232H69.533c-2.526,0-5.053,0-5.053,3.221s2.526,3.221,5.053,3.221h3.095c-2.021,2.906-3.6,3.6-7.263,5.179a2.128,2.128,0,0,0-1.137,2.148c0,0.632.126,3.853,3.474,3.853C69.849,44.3,78,41.265,80.4,33.116H85.7c0.632,0,.947,0,0.947,1.263,0,2.59-.695,2.59-1.579,2.59-0.505,0-2.905-.442-3.41-0.442a3.107,3.107,0,0,0-3.095,3.411c0,2.716,2.59,3.348,7.895,3.348,5.937,0,7.516-2.274,7.516-9.411,0-2.463-.189-3.979-1.01-5.179a4.005,4.005,0,0,0-3.158-2.021H81.154ZM139.632,51.56a92.112,92.112,0,0,1-8.968,6.885C127.822,60.4,127,61.35,127,62.74s1.01,3.916,3.473,3.916c1.642,0,7.263-4.042,9.158-5.622v15.1c0,3.095,0,5.053,3.79,5.053,3.41,0,3.41-2.337,3.41-5.053V28.379c0-3.1,0-5.053-3.789-5.053-3.411,0-3.411,2.4-3.411,5.053V38.738a79.619,79.619,0,0,0-5.242-6.19,2.944,2.944,0,0,0-2.4-.947,3.759,3.759,0,0,0-3.663,3.348c0,1.137.189,1.453,2.274,4.169,2.842,3.79,4.484,5.937,6.5,5.937a3.927,3.927,0,0,0,2.526-1.263V51.56Zm23.053-13.2h-9.411c-4.358,0-5.052,1.832-5.052,3.853,0,2.653,1.831,3.6,5.052,3.6h9.411c-0.506,8.716-4.927,19.9-13.327,28.487C147.653,76,147.4,76.762,147.4,77.647c0,2.526,2.085,3.474,4.232,3.474,1.137,0,2.084-.063,4.989-3.663,3.664-4.485,8.085-10.169,10.106-16.8,2.021,5.811,9.6,19.9,14.842,19.9a3.805,3.805,0,0,0,3.789-3.663,3.067,3.067,0,0,0-.379-1.453c-0.189-.505-6.884-8.969-7.958-10.8-5.3-8.843-5.873-13.517-6.5-18.823h10.105c4.295,0,5.053-1.832,5.053-3.79,0-2.653-1.9-3.663-5.053-3.663H170.39v-9.98c0-3.285-.821-5.053-3.79-5.053-3.915,0-3.915,2.842-3.915,5.053v9.98Zm22.168-4.99c0-1.579-4.99-10.233-8.4-10.233a3.545,3.545,0,0,0-3.474,3.474c0,1.2.316,1.642,3.158,5.811,2.842,4.106,3.158,4.548,4.8,4.548C181.442,36.969,184.853,36.654,184.853,33.369Zm35.236,11.622a7.264,7.264,0,1,0,7.263,7.264A7.264,7.264,0,0,0,220.089,44.991Zm42.563-7.58a3.965,3.965,0,0,0-4.168,3.979v6.064a4.008,4.008,0,0,0,4.168,3.979h9.979a4.085,4.085,0,0,0,4.168-3.979V41.391a4.041,4.041,0,0,0-4.168-3.979h-9.979Zm6.568,5.179a0.906,0.906,0,0,1,.948,1.137v1.011c0,0.821-.253,1.2-0.948,1.2h-3.094c-0.821,0-.948-0.442-0.948-1.137V43.728a0.99,0.99,0,0,1,.948-1.137h3.094Zm25.642-5.179c-2.715,0-4.926,1.642-4.926,3.979v6.064c0,2.274,2.084,3.979,4.926,3.979h9.158c2.906,0,4.927-1.769,4.927-3.979V41.391c0-2.337-2.148-3.979-4.927-3.979h-9.158Zm6,5.179c0.506,0,.948.126,0.948,0.695v1.958c0,0.632-.442.695-0.948,0.695h-3.157c-0.632,0-.948-0.19-0.948-0.695V43.286c0-.379.253-0.695,0.948-0.695h3.157Zm6.758,18.317c2.653,0,5.053,0,5.053-3.411,0-3.79-1.958-3.79-5.053-3.79H287.284V35.517h19.7c2.779,0,5.052,0,5.052-3.474,0-3.6-1.894-3.79-5.115-3.79H287.284c0-2.4,0-4.8-3.6-4.8-2.59,0-3.979.758-3.979,3.916v0.884H260c-2.842,0-5.052.063-5.052,3.537,0,3.727,2.021,3.727,5.052,3.727h19.706V53.708H258.8c-2.652,0-5.052,0-5.052,3.411,0,3.79,1.958,3.79,5.052,3.79h5.306V74.173a59.454,59.454,0,0,0-6.632.505,3.014,3.014,0,0,0-1.9,3.1c0,3.727,2.337,3.79,4.169,3.79A116.994,116.994,0,0,0,279.01,79.6c2.779-.632,4.231-0.884,4.231-3.284,0-2.211-.884-4.106-3.157-4.106-0.632,0-7.074,1.074-8.59,1.263V60.908h7.326c1.264,4.8,6.569,12.633,15.853,16.928,5.242,2.463,10.547,3.6,13.01,3.6,1.895,0,4.358-.505,4.358-4.106,0-2.463-1.768-2.842-3.41-3.221-6.442-1.516-7.137-1.642-9.916-2.653,6.316-3.221,7.263-4.421,7.263-6.127,0-1.642-1.516-3.916-3.663-3.916-1.453,0-2.021.379-7.074,3.663a33.858,33.858,0,0,1-3.6,2.084,17.278,17.278,0,0,1-4.547-6.253H307.62Zm42.437-28.36v-3.79c0-3.284,0-5.053-4.169-5.053-3.537,0-3.537,2.274-3.537,5.053v3.79h-16.8c-5.937,0-6.253,4.737-6.253,6.19v18.57c0,1.769.5,6.19,6.253,6.19h16.8V76.573c0,3.348,0,5.053,4.232,5.053,3.474,0,3.474-2.211,3.474-5.053V63.5H367.3c5.936,0,6.252-4.737,6.252-6.19V38.738c0-1.706-.5-6.19-6.252-6.19H350.057Zm13.957,7.517c1.643,0,2.021,0,2.021,1.895v12c0,1.832-.378,1.832-2.021,1.832H350.057V40.064h13.957ZM328.836,55.792c-1.642,0-2.021,0-2.021-1.832v-12c0-1.895.379-1.895,2.021-1.895h13.515V55.792H328.836Zm89.931-19.644-11.811.379c-3.284.126-6.568,0.253-6.568,4.3,0,4.485,3.6,4.358,6.884,4.232l11.81-.379,0.506,13.77a19.439,19.439,0,0,0-6.253-.884c-11.874,0-12.631,7.959-12.631,10.232,0,7.453,7.073,11.369,13.894,11.369,2.59,0,6.884-.569,9.79-3.221a8.369,8.369,0,0,0,2.336-4.674c4.358,3.79,4.864,4.232,6.379,4.232a4.041,4.041,0,0,0,4.106-4.3c0-2.716-1.769-5.432-9.537-9.285l-0.442-17.5,3.852-.126c3.284-.126,6.569-0.253,6.569-4.3,0-4.485-3.6-4.358-6.884-4.232l-3.79.126-0.126-4.358c-0.063-3.221-.127-6.7-4.169-6.7a4.077,4.077,0,0,0-3.6,2.021c-0.568.948-.5,2.084-0.442,4.864Zm0.442,30.318c-0.063,1.263-.19,4.8-4.927,4.8-2.589,0-5.494-1.2-5.494-3.411,0-.379.126-2.653,3.915-2.653A20.783,20.783,0,0,1,419.209,66.467Zm-27.726-3.474c-0.064-5.116.189-10.548,0.442-14.085,0.189-3.095,1.958-19.075,1.958-19.644,0-3.663-3.537-3.663-3.979-3.663a3.629,3.629,0,0,0-3.6,2.147c-1.453,3.1-2.842,16.423-2.842,28.739A104.368,104.368,0,0,0,384.6,73.352c0.316,1.516,1.074,4.927,4.674,4.927a4.472,4.472,0,0,0,4.358-3.348c0.568-1.579,1.452-5.5,2.463-8.148,0.695-1.832,2.653-4.99,2.653-6.253a2.805,2.805,0,0,0-2.969-2.716C393.5,57.813,392.367,60.214,391.483,62.993Zm75.909-18.57c0.758-.063,1.769-0.126,3.348-0.126,7.7,0,8.779,2.842,8.779,8.338a51.95,51.95,0,0,1-1.263,11.054c-0.885,3.663-1.706,6.7-5.369,6.7a12.72,12.72,0,0,1-3.852-.821,5.189,5.189,0,0,0-1.769-.316,4,4,0,0,0-3.916,4.3,4.142,4.142,0,0,0,1.642,3.411c1.516,1.011,5.748,2.021,9.032,2.021,7.7,0,10.231-6.379,11.368-9.853,1.769-5.5,2.337-13.391,2.337-16.865,0-15.728-9.663-16.422-19.073-16.044a59.756,59.756,0,0,0,.442-6.19c0-2.084,0-5.748-4.358-5.748a4,4,0,0,0-4.042,2.463c-0.506,1.326-.632,8.4-0.821,9.98-10.674.821-12.948,1.39-12.948,5.243A3.661,3.661,0,0,0,450.971,46c1.074,0,6.253-.695,7.453-0.758-2.274,11.18-4.989,16.486-8.084,21.539-3.032,4.99-3.032,5.116-3.032,6.253,0,2.779,2.716,4.232,4.611,4.232,2.084,0,3.031-1.137,4.547-3.285C457.1,73.036,463.413,63.814,467.392,44.423Zm36.253-17.054c-0.253-.948-2.021-6.19-4.8-6.19a2.253,2.253,0,0,0-2.337,2.337c0,1.516,1.768,4.927,2.084,5.5,0.5,1.011,1.2,2.274,2.653,2.274a2.561,2.561,0,0,0,2.589-2.59A4.209,4.209,0,0,0,503.645,27.369ZM494.3,33.18a2.3,2.3,0,0,0,1.894-2.463c0-.758-1.579-7.832-5.431-7.832a2.308,2.308,0,0,0-2.274,2.59,13.186,13.186,0,0,0,1.579,4.485,4.117,4.117,0,0,0-4.295,4.169c0,1.011.253,1.326,2.274,4.358a106.052,106.052,0,0,1,6.379,11.369c1.958,4.106,2.463,5.179,4.926,5.179a4.216,4.216,0,0,0,4.169-3.979C503.519,48.718,496.255,36.211,494.3,33.18Zm35.615-1.074c-1.2.063-2.526,0.126-5.305,0.126-1.2,0-7.327-.126-8.716-0.126-3.853,0-4.421,2.526-4.421,3.916a3.866,3.866,0,0,0,2.274,3.537c1.136,0.569,4.926.569,7.452,0.569,3.032,0,3.979-.063,12.5-0.379,0.821,1.579,1.327,2.463,2.274,4.232-3.158.253-6.7,0.316-9.916,0.316-3.094,0-4.484-.126-5.621-0.19-0.442,0-4.737-.316-6.063-0.316a3.909,3.909,0,0,0-4.1,3.979c0,4.485,4.168,4.485,9.221,4.485a208.388,208.388,0,0,0,20.842-1.074,24.408,24.408,0,0,0,4.231,5.243,38.689,38.689,0,0,0-12.252-1.705c-9.284,0-12.379,1.958-14.147,3.158-1.39.947-4.927,3.79-4.927,8.4a11.618,11.618,0,0,0,4.8,9.032c4.927,3.727,13.516,4.548,20.779,4.548,5.179,0,9.916-.569,11.179-1.074a4.034,4.034,0,0,0-1.263-7.769c-0.5,0-1.39.063-1.895,0.126a68.929,68.929,0,0,1-7.9.379c-3.852,0-16.484,0-16.484-5.243,0-4.169,6.253-4.169,8.653-4.169A47.764,47.764,0,0,1,546.9,64.824a19.111,19.111,0,0,0,4.295.948c1.137,0,5.179-.632,5.179-4.611,0-2.4-1.2-3.6-3.158-5.621a64.392,64.392,0,0,1-3.916-5.369c9.853-1.2,11.748-2.084,11.748-5.5a3.873,3.873,0,0,0-3.537-4.042c-1.137,0-10.737,2.021-12.758,2.337-0.884-1.39-1.895-3.158-2.337-3.916,11.747-1.2,13.832-2.148,13.832-5.622a3.748,3.748,0,0,0-3.537-4.042c-0.5,0-3.79.569-4.674,0.695-3.537.568-5.558,0.884-9.537,1.326-0.442-.821-2.084-5.243-2.715-6.127a4.376,4.376,0,0,0-3.474-1.832,3.9,3.9,0,0,0-4.042,3.916C528.271,28.19,528.4,29.011,529.913,32.106Zm72.5,3.916a16.892,16.892,0,0,1,10.232,29.561c-0.821.632-3.221,2.59-8.842,3.663-4.232.758-6.127,1.137-6.127,4.421,0,0.569,0,4.421,4.548,4.421,5.052,0,24.568-4.042,24.568-25.139,0-17.117-13.326-24.886-26.526-24.886-15.6,0-28.989,11.117-28.989,27.476,0,9.411,5.368,18.444,13.894,18.444,5.369,0,8.653-3.79,10.105-5.937C598.686,62.993,603.107,53.392,602.412,36.022Zm-8.021.947a60.442,60.442,0,0,1-3.347,20.591c-0.568,1.769-2.653,7.643-5.621,7.643-2.716,0-5.937-3.6-5.937-9.854C579.486,49.413,582.77,39.243,594.391,36.969ZM666.449,57.75a100.524,100.524,0,0,1,12.126,7.138c4.989,3.348,5.052,3.348,6.316,3.348A4.069,4.069,0,0,0,688.743,64c0-1.642-.7-2.653-3.41-4.737a98.855,98.855,0,0,0-12.821-7.453c4.294-3.411,9.789-9.1,9.789-13.58,0-3.537-2.526-4.611-5.5-4.611H666.322V31.285c0-3.348,0-6.759-4.294-6.759s-4.3,3.411-4.3,6.759v2.337H646.238c-3.347,0-6.7,0-6.7,3.916s3.285,3.916,6.7,3.916h24.19c0.821,0,.947,0,0.947.253,0,0.884-4.863,4.485-6.821,5.874-9.979,6.822-22.989,10.232-24.632,10.675-2.336.632-4.989,1.263-4.989,4.422,0,1.958,1.01,4.358,3.789,4.358,2.527,0,12.316-3.285,19.011-6.19V73.1c0,3.474,0,6.758,4.358,6.758s4.358-3.284,4.358-6.758V57.75Zm48.625-2.4c0-1.011,0-1.769-2.021-6.316-2.968-6.632-3.284-7.2-5.684-7.2a3.391,3.391,0,0,0-3.663,3.474c0,0.884.316,1.642,3.032,8.653,1.326,3.348,1.957,4.927,4.673,4.927A3.547,3.547,0,0,0,715.074,55.35Zm12.442-4.421c0-2.337-1.389-5.811-2.968-9.853-0.632-1.579-1.516-3.853-4.358-3.853a3.712,3.712,0,0,0-3.726,3.663,7.046,7.046,0,0,0,.5,2.4c0.316,0.758,1.7,4.232,2.021,5.053,1.895,4.99,2.211,5.874,4.674,5.874A3.722,3.722,0,0,0,727.516,50.929Zm18.948-6.758a3.775,3.775,0,0,0-4.042-4.042c-3.348,0-3.727,2.59-3.916,3.979-1.074,6.885-1.137,7.643-1.7,9.411-3.916,12.569-12.758,15.728-19.958,17.244-1.453.316-3.853,0.821-3.853,4.042,0,2.148,1.2,4.106,4.232,4.106,5.431,0,15.915-4.737,21.536-11.5C744.822,60.087,746.464,49.1,746.464,44.17ZM782.9,50.8a106.06,106.06,0,0,1,15.411,5.369c5.179,2.274,5.431,2.4,6.189,2.4a4.254,4.254,0,0,0,4.168-4.548c0-2.716-2.147-3.79-5.368-5.243a131.074,131.074,0,0,0-20.4-6.822V31.474c0-3.79,0-6.759-4.737-6.759-4.421,0-4.421,3.285-4.421,6.759V73.036c0,3.79,0,6.7,4.8,6.7,4.358,0,4.358-3.284,4.358-6.7V50.8Zm49.573-5.685V37.412c0-1.2,0-1.516,1.453-1.895,16.042-3.979,16.042-6.316,16.042-7.959a3.756,3.756,0,0,0-3.979-3.916,12.7,12.7,0,0,0-3.537,1.137c-3.347,1.263-7.073,2.526-11.431,3.727-3.727,1.011-5.937,1.579-5.937,4.927V67.793a3.709,3.709,0,0,0,2.337,3.158c0.694,0.253,1.389.505,4.421,0.505h13.515c3.222,0,5.116,0,5.116-3.916,0-3.474-2.4-3.474-5.116-3.474H834.242c-1.769,0-1.769-.442-1.769-1.895V52.444h12.884c3.222,0,5.116,0,5.116-3.853,0-3.474-2.4-3.474-5.116-3.474H832.473Zm20.653,31.013c0,3.158,0,5.053,3.852,5.053,3.411,0,3.411-2.337,3.411-5.053V36.211c0-1.579.632-1.579,1.958-1.579h7.01c0.821,0,1.706.253,1.706,1.832V64.888c0,0.695,0,1.642-1.137,1.642-0.569,0-3.537-.568-4.232-0.568-3.284,0-3.6,3.285-3.6,3.979,0,3.095,3.158,4.421,9.6,4.421,2.716,0,6.632-.948,6.632-4.8V32.674a5.075,5.075,0,0,0-4.484-5.432H856.536c-1.768,0-3.41,2.211-3.41,3.79v45.1Zm57.215-33.35h4.484a5,5,0,0,0,5.242-4.737V29.9c0-2.905-2.147-4.737-5.179-4.737h-21.22c-5.432,0-5.5,2.274-5.558,9.538-0.127,8.464-.19,21.981-2.779,31.266a35.122,35.122,0,0,0-1.137,4.8c0,2.337,2.337,3.032,3.474,3.032,2.147,0,3.852-.569,5.747-13.517V71.583c0,3.663,0,5.179,2.968,5.179,3.411,0,3.411-2.842,3.411-5.179v-14.4a1.383,1.383,0,0,1,1.579-1.642h1.452V76.194c0,2.463,0,5.179,3.537,5.179,3.979,0,3.979-2.337,3.979-5.179V74.236a14.843,14.843,0,0,0,4.99.884c5.3,0,5.3-3.158,5.3-5.243V53.96c0-5.179-3.6-5.242-5.558-5.242h-4.737V42.78Zm-7.516,5.937h-5.873a3.8,3.8,0,0,0-2.4,1.011c0.252-4.232.252-5.622,0.315-6.948h7.958v5.937Zm-7.958-15.475c0-1.263.38-1.453,1.2-1.453H911.6c1.011,0,1.263.442,1.263,1.453v1.074c0,1.2-.442,1.39-1.263,1.39H894.867V33.243Zm15.474,22.3h2.526c1.327,0,1.327,1.263,1.327,2.526v8.148c0,0.758,0,1.137-.442,1.137-0.379,0-1.895-.505-2.274-0.505a2.321,2.321,0,0,0-1.137.253V55.539Zm19.832-23.56c0-2.905,0-5.053-3.6-5.053-3.285,0-3.285,2.463-3.285,5.053V60.656c0,2.906,0,5.053,3.6,5.053,3.285,0,3.285-2.463,3.285-5.053V31.98Zm4.421,38.53c0,1.453,0,2.4-1.579,2.4-0.758,0-4.484-.379-5.306-0.379-2.463,0-3.157,2.147-3.157,3.537,0,3.6,3.094,4.358,7.452,4.358,9.221,0,9.663-3.916,9.663-8.148V28.316c0-2.969,0-5.053-3.726-5.053-3.347,0-3.347,2.463-3.347,5.053V70.509Zm49.131-12.19a18.121,18.121,0,0,0-5.369-.695c-8.589,0-13.073,5.5-13.073,10.611,0,4.358,3.347,11.117,13.452,11.117,9.6,0,13.074-4.864,13.2-9.917a48.868,48.868,0,0,1,4.548,3.158,4.529,4.529,0,0,0,2.842,1.137,4.377,4.377,0,0,0,4.295-4.611c0-2.021-.7-3.979-11.18-8.338L992,51.56c-0.126-3.285-.315-6.506-4.358-6.506-4.421,0-4.294,3.663-4.168,6.885Zm0.379,7.706c0.189,4.674-2.653,5.685-5.179,5.685-3.284,0-5.053-1.832-5.053-3.663,0-.758.253-3.1,4.611-3.1A13.2,13.2,0,0,1,984.1,66.025ZM961.683,33.559a77.469,77.469,0,0,0-8.021.19,4.094,4.094,0,0,0-2.653,3.916,3.883,3.883,0,0,0,2.968,3.916c0.885,0.189,1.39.189,6.127,0.189a40.629,40.629,0,0,1-5.747,12.7c-4.106,6.253-4.548,6.948-4.548,8.211a4.067,4.067,0,0,0,4.3,4.106c1.137,0,2.526-.253,4.168-2.653s6.569-9.79,9.916-22.486c1.832-.063,8.21-0.316,9.474-0.758a4.124,4.124,0,0,0-1.39-8.022c-0.189,0-5.242.379-6.252,0.442a31.206,31.206,0,0,0,.568-4.611,3.986,3.986,0,0,0-4.105-4.169,3.6,3.6,0,0,0-3.474,2.148C962.756,27.242,962.062,31.222,961.683,33.559ZM1006.4,43.981c0-1.516,0-2.211-3.79-5.558-1.07-1.011-9.475-8.085-12.885-8.085a4.422,4.422,0,0,0-4.421,4.3c0,2.274,1.515,3.221,2.842,4.042,3.1,1.958,6.694,4.232,9.094,6.127,3.28,2.653,3.66,2.906,5.05,2.906A4.188,4.188,0,0,0,1006.4,43.981Zm52.86-10.169a4.024,4.024,0,0,0-3.98-4.358c-6.13-.695-11.56-1.263-18.76-3.474a37.143,37.143,0,0,0-4.61-1.263c-1.9,0-3.98,1.579-3.98,4.548,0,2.021.88,3.221,3.16,4.106,3.85,1.453,18.69,4.421,23.3,4.421C1055.09,37.791,1059.26,37.791,1059.26,33.811Zm-31.84,18.128a99.034,99.034,0,0,0,1.2-11.748c0-1.579-.88-4.106-4.48-4.106-3.98,0-4.17,3.285-4.23,4.864-0.25,4.548-.32,5.874-0.82,10.232-0.13,1.074-1.14,6.443-1.14,7.706a4.2,4.2,0,0,0,4.36,4.358c1.96,0,3.09-.947,4.99-2.59a27.738,27.738,0,0,1,17.24-6.443c2.46,0,11.43.695,11.43,7.39,0,4.737-4.48,9.411-14.46,9.411a34.9,34.9,0,0,1-8.59-1.137,8.4,8.4,0,0,0-1.9-.316c-2.4,0-4.1,1.705-4.1,4.421,0,3.6,2.71,5.243,13.2,5.243,23.37,0,24.95-14.086,24.95-17.623,0-8.653-8.28-15.538-19.2-15.538A30.449,30.449,0,0,0,1027.42,51.939Z"/><path id="shape" class="cls-2" d="M1687.62,94.943l-0.06-.007a7.412,7.412,0,0,1-5.82,2.114,17.7,17.7,0,0,1-11.91,2.443,8.394,8.394,0,0,1-6.19.505,5.226,5.226,0,0,1-2.96.407c-2.29,1.163-4.92-.985-6.27-2.253-3.69-1.448-5.4-6.582-4.9-10.326,1.32-1.776,2.55-2.189,4.4-3.132,6.05,0.493,10.47-.516,16.05-0.918,4.15-1.362,8.81-1.795,12.88-3.575a3.778,3.778,0,0,1,3.5-1.784c3.64-3.44,6.34-6.527,7.58-11.422,1.4-5.623.14-9.829-5.05-12.956a5.56,5.56,0,0,1-3.2-.983c-8.22-.817-15.87.844-23.76,3.585-2.61.683-4.24,2.252-6.51,3.695-1.83,1.035-3.76.967-5.19,2.381-2.5,3.363-6.15,5.862-8.78,9.045-1.62,2.743-5.36,4.712-8.63,3.421-1.95-.755-3.31-2.549-5.28-3.226-5.36-1.506-2.32-9.562,1.93-10.939a4.7,4.7,0,0,1,2.68-2.963,5.56,5.56,0,0,1,2.92-2.534c0.32-2.156,2.92-2.637,4.01-4.267,1.36-3.486,5.39-5.823,7.81-8.73a57.622,57.622,0,0,1,9.64-9.784c0.72-1.52,2.14-3.988,3.94-4.347a7.461,7.461,0,0,1,.83-1.508c0.03-1.259,1.24-2.394,1.94-3.393-0.52-.1-0.98-0.333-1.42-0.445-3.99,2.352-9.26,1.9-13.86,2.322-6.07.722-5.3-2.133-7.43-6.27-4.37-2.487-2.28-11.427,3.26-9.7,5.06,0.6,11.01-1.526,15.54-.662a7.306,7.306,0,0,1,1.59-.58,19.737,19.737,0,0,1,9.58-2.282c2.28-.506,4.43-2.563,6.95-2.444,6.25-7.227,23.16,6.89,13.02,12.321a10.637,10.637,0,0,1-5.19,4.954c-3.29,6.337-10.17,10.108-13.17,16.644,1.84,0.172,3.83-.515,5.56.041,1.63-.252,4.22-1.156,5.67.017,2.17-1.444,5.23.231,7.59,0.572,2.79,0.474,6.66.83,8.53,3.229,4.11,0.932,6.15,5.382,8.56,8.352,3.65,5.2,5.08,12.672,3.09,18.661,0.42,2.427-1.13,5.738-2.6,7.646-0.5,5.594-6.13,9.237-10.08,12.627-0.53,2.276-3.41,2.695-5.16,3.765A6.474,6.474,0,0,1,1687.62,94.943Zm-381.3-31.324c0.06-.1.13-0.206,0.19-0.31-0.78-2.327,1.95-4.432,3.62-5.526,1.24-2.826,5.15-6.757,8.57-6.822,1.88-2.371,5.79-2.883,8.41-3.832,2.75-1.895,6.27-3.872,9.75-3.434,0.94-1.71,3.35-1.244,4.56-2.626,1.33-1.8,1.81-4.944,3.87-6.244,0.73-3.864,2.76-7.216,4.34-10.91-1.87.3-4.33,1.15-5.93-.167-5.27,2.365-10.77-3.05-10.68-7.617-2.55-1.624-2.07-6.416.52-7.264,0.31-2.282,4.52-3.387,6.08-1.844,2.56,0.669,5.76-.527,8.09.8,2.25-.695,5.58-1.752,7.87-1.133a9.032,9.032,0,0,0,3.23-1.546c3.83-4.961,13.29-3.286,15.38,2.719,3.05,4.309-4.55,13.627-7.07,17.451,0.54,2.278-2.03,3.512-2.88,5.248,0.38,1.94-1.48,3.2-2.35,4.628-0.78,2.207-2.29,3.9-3.01,6.016,2.03,0.511,3.85,1.423,5.93,1.807,1.58,0.316,4.03-.713,5.3,1.036a4.125,4.125,0,0,1,4.2.909c0.86-.041,1.63.314,2.4-0.173a15.345,15.345,0,0,0,1.33-7.431c-0.14-2.311-.93-6.212,1.29-7.666,3.01-3.1,7.68-.808,11.46.018,3.82,2.493,3.8,8.258,2.67,11.937-0.9,2.289.89,5-.23,7.252a3.764,3.764,0,0,1,1.35,1.958c6.14,2.882,22.55,7.2,13.56,16.14a2.958,2.958,0,0,1-.37,1.158c0.17,1.415-1.93,3.214-3.16,2.915-1.31,1.646-4.81,1.734-5.94-.336-1.88,0-3.98-1.367-5.3-2.3-1.67.156-3.58-1.835-5.01-2.059a21.616,21.616,0,0,1-3.68,8.6c-0.92,1.8-1.17,4.666-3.3,5.456a11.645,11.645,0,0,1-5.14,6.572,7.891,7.891,0,0,1-4.53,4.383c-1.27,2.636-4.92,3.024-7.23,4.456a3.835,3.835,0,0,1-4.11,1.415c-2.68,2.535-7.58-.427-8.91-3.231-8.68-6.3,1.81-12.174,7.97-13.872a4.249,4.249,0,0,1,2.84-2.275c0.32-2.13,2.84-2.782,3.96-4.52,1.71-1.215,2.63-3.962,4.82-4.275,1.04-2.333,1.94-4.982,2.85-7.262a14.744,14.744,0,0,1-1.43-1.081c-2.02.8-4.17-1.152-6.15-1.317-2.49-.651-6.26.354-8.05-1.712a4.11,4.11,0,0,1-3.61-.655,2.776,2.776,0,0,0-2.17.609c-1.7,3.313-4.36,5.967-5.59,9.513,0.28,1.062-.87,3.044-1.95,3.491-0.08,2.849-2.82,5.293-4.28,7.3-1.8,5.04-6.86,8.848-11.33,11.42-4.19,5.263-12.8,1.239-17.86-1.007a4.072,4.072,0,0,1-3.77-2.878C1300.59,81.8,1302.53,69.18,1306.32,63.619Zm21.45,6.423a3.765,3.765,0,0,1,2.3-3.4,9.462,9.462,0,0,1,3.04-5.248c-6.97-.049-9.91,2.335-12.83,8.49,0.44,1.138-1.1,3.177.67,3.633a3.954,3.954,0,0,1,3.38.748c1.55-.909,1.51-3.517,3.43-4.143A0.245,0.245,0,0,0,1327.77,70.042ZM1406.9,56.8h0v0h0Zm63.94-22.915a2.8,2.8,0,0,0,.44,1.536,5.656,5.656,0,0,0,.44,3.828c-0.22,4.568-.45,10.138,1.14,14.5a4.049,4.049,0,0,0,.67,4.279c-0.72,2.756,1.58,5.353,2.11,8a4.412,4.412,0,0,0,1.32,4.212c1.12,2.482,1.5,6.151,3.94,7.621a32.665,32.665,0,0,0,15.78,14.391c3.1-.4,6.69,1.631,9.11-0.7,1.56,0.3,3.84-.7,4.36-2.3a24.533,24.533,0,0,0,9.05-10.288c1.53-2.456,4.61-5.757,4.61-8.61,5.91-7.166-6.32-16.124-13.36-12.956-4.54,4.674-3.84,12.223-9.06,16.28-2.1,1.526-2.69-1.953-4.61-2.288,0.03-2.874-3.78-4.363-4.2-6.88-0.12-4.045-3.2-8.006-3.72-12.134-1.01-3.049.73-6.645-.73-9.529a7.65,7.65,0,0,0,.01-6.284c0.91-1.659.73-4.369,0.32-6.174,1.14-4.675.11-9.651,1.27-14.476,0.73-6.581-8.93-9.83-13.67-7.73-5.84,3.949-4.87,12.88-4.35,19.006C1470.24,28.947,1471.24,31.746,1470.84,33.889Zm94.83,9.4c-3.01-5.209-4.96-12.569-10.08-16.263-3.18-3.7-8.39-13.01-14.1-11.005a8.42,8.42,0,0,0-4.66,1.881c-2.74-.01-4.51,2.705-4.93,5.263-0.01,3.084,2.97,5.307,4.58,7.56,2.58,3.372,4.8,7.263,7.6,10.35,3.58,5.065,4.43,11.543,6.77,17.081-0.23,3.113,1.01,6.021.96,9.192,1.75,2.507,7.32,4.365,9.21,1.914,6.22,0.161,9.75-5.651,7.55-11.278-1.02-3.279.59-7.941-2.2-10.413-0.19-.613-0.44-1.206-0.67-1.807A4.178,4.178,0,0,0,1565.67,43.286ZM1211.96,25.831a11.425,11.425,0,0,0-3.43-3.111,3.6,3.6,0,0,0-2.86-2.21c-5.22-3.639-8.42-8.943-12.03-14.079a7.611,7.611,0,0,0-3.86-5.423c-2.66.133-5.64,0.843-6.62,3.5-2.14.74-3.97,4.313-2.84,6.3-0.82,1.3.15,4,1.76,4.33,1.42,1.711,1.62,5.215,4.09,5.855a15.979,15.979,0,0,1,2.98,4.974c-5.3,5.366-12.85,12.811-10.96,21.027-1.75,2.861,1.53,5.647,2.76,7.821,0.09,4.209,5.26,6.992,7.93,9.8,2.57,1.987,2.99,5.857,5.68,7.608a11.179,11.179,0,0,0,1.51,5.624,23.046,23.046,0,0,0-1.63,4.027,4.186,4.186,0,0,0-2.59,1.832,45.86,45.86,0,0,0-4.78,1.037c-6.98-1.128-18.56-9.95-18.88,2.841-0.24,3.732,1.39,9.545,5.77,10.161,2.24,3.3,9.14,3.5,12.62,2.669,2.08,0.989,4.69-.166,6.88-0.445,2.43-.194,5.55-0.328,7.25-2.422a3.653,3.653,0,0,0,3.85-2.2c2.29-.175,3.47-2.951,4.5-4.61,0.85-1.809,3.78-3.366,2.92-5.806,0.64-2.534,2.27-6.381.47-8.59-0.23-4.847-2.76-9.565-5.78-13.2-1.29-2.319-2.61-5.926-5.52-6.9-0.41-.457-0.9-0.838-1.34-1.256-0.06-.992-0.97-2.725-2.19-2.947-0.07-1.313-1.78-2.393-2.85-2.526a6.906,6.906,0,0,1-.82-8.452c1.34-.832,3.7-1.235,4.6-2.589a4.845,4.845,0,0,0,1.72-.173c5.4,2.217,13.28-.447,12.33-7.179C1213.56,29.045,1213.4,27.146,1211.96,25.831Zm36.25,50.124c-0.02-.018-0.03-0.037-0.05-0.055a3.618,3.618,0,0,0-1.58-4.016c-1.09-2.208-.83-6.144-3.35-7.163-2.74-5.309-6.85-10.383-12.12-13.154-1.17-4.076-7.41-3.384-9.75-.952-7.74.174-5.59,11.112,0.63,12.154,1.18,1.969,3.55,2.825,4.66,4.887,0.6,1.079.98,3.365,2.48,3.7a13.607,13.607,0,0,1,2.85,6.014c0.03,1.294-.39,3.236.74,4.344-1.21,5.052,4.17,8.637,8.59,6.185,1.31,0.632,3.84-.426,4.23-1.736C1249.4,85.115,1250.72,78.8,1248.21,75.955Zm-79.33-10.586c1.74-1.584,2.88-3.456,1.95-5.815,0.26-2.414-2.34-3.52-3.59-5.116-3.44-6.361-10.94-.066-12.05,4.676-1.76,1.376-4.67,3.838-4.67,6.281-2.08.634-1.78,3.4-3.02,4.656a4.157,4.157,0,0,0-2.46,3.016,4.351,4.351,0,0,0-2.32,3.025c-7.1,3.189-1.64,12.714,4.6,13.01,4.22,4.481,9.16-1.581,9.89-6.06a14.112,14.112,0,0,0,4.7-6.54,4.092,4.092,0,0,0,1.84-3.014A22.623,22.623,0,0,0,1168.88,65.369Z"/></svg>