<svg xmlns="http://www.w3.org/2000/svg" width="198" height="161" viewBox="0 0 198 161"><defs><style>.cls-1{fill:#fff;fill-rule:evenodd;}</style></defs><path id="Twitter" class="cls-1" d="M62.38,160.749c74.5,0,115.234-61.664,115.234-115.134,0-1.752-.035-3.5-0.116-5.231A82.355,82.355,0,0,0,197.7,19.431a80.909,80.909,0,0,1-23.259,6.37A40.6,40.6,0,0,0,192.253,3.417a81.2,81.2,0,0,1-25.716,9.822,40.525,40.525,0,0,0-69.02,36.9A115.016,115.016,0,0,1,14.037,7.865,40.475,40.475,0,0,0,26.575,61.887,40.226,40.226,0,0,1,8.231,56.825c-0.009.169-.009,0.338-0.009,0.516A40.492,40.492,0,0,0,40.715,97.012a40.468,40.468,0,0,1-18.291.693A40.541,40.541,0,0,0,60.26,125.811a81.312,81.312,0,0,1-50.3,17.322,82.653,82.653,0,0,1-9.661-.56A114.73,114.73,0,0,0,62.38,160.749"/></svg>