<svg xmlns="http://www.w3.org/2000/svg" width="41" height="49" viewBox="0 0 41 49"><defs><style>.cls-1{fill:#fff;fill-rule:evenodd;}</style></defs><path id="shape" class="cls-1" d="M33.574,0.876a4.3,4.3,0,0,1,4.237,4.2,3.773,3.773,0,0,1-1,2.468L27.43,18.051h9.036a3.281,3.281,0,0,1,3.552,3.208,3.185,3.185,0,0,1-3.489,3.208H24.937v4.38H36.466a3.33,3.33,0,0,1,3.552,3.27c0,2.159-1.745,3.147-3.489,3.147H24.937v8.946a4,4,0,0,1-4.3,3.949,3.994,3.994,0,0,1-4.362-3.949V35.265H4.747c-1.932,0-3.552-1.111-3.552-3.085a3.348,3.348,0,0,1,3.614-3.332H16.275v-4.38H4.747c-1.932,0-3.552-1.11-3.552-3.146,0-2.282,1.869-3.27,3.614-3.27h8.974L4.461,7.539A3.858,3.858,0,0,1,3.4,5.01,4.292,4.292,0,0,1,7.638.876a3.612,3.612,0,0,1,3.054,1.481L20.637,13.3,30.52,2.357A3.75,3.75,0,0,1,33.574.876"/></svg>