<svg xmlns="http://www.w3.org/2000/svg" width="38" height="50" viewBox="0 0 38 50"><defs><style>.cls-1{fill:#fff;fill-rule:evenodd;}</style></defs><path id="shape" class="cls-1" d="M30.137,1.046a8.636,8.636,0,0,1,2.183.28,6.074,6.074,0,0,1,4.589,5.6V27.637a7.2,7.2,0,0,1-2.093,4.7L20.16,48.179a2.388,2.388,0,0,1-1.727.707,2.326,2.326,0,0,1-1.7-.708L2.552,32.34a6.615,6.615,0,0,1-1.513-4.7V6.927a5.534,5.534,0,0,1,3.988-5.6,5.807,5.807,0,0,1,1.787-.283,6.383,6.383,0,0,1,4.764,2.071l7.073,7.807,6.633-7.805a6.563,6.563,0,0,1,4.851-2.073m-9.9,40.338,11.313-12.3A3.857,3.857,0,0,0,32.7,26.608V9.88a2.824,2.824,0,0,0-2.085-2.54,3.731,3.731,0,0,0-.957-0.126,2.977,2.977,0,0,0-2.163.912L21.8,14.3c-0.1.108-.205,0.217-0.3,0.327l-1.276,1.518Z"/></svg>