<svg xmlns="http://www.w3.org/2000/svg" width="57" height="50" viewBox="0 0 57 50"><defs><style>.cls-1{fill:#fff;fill-rule:evenodd;}</style></defs><path id="shape_1" data-name="shape 1" class="cls-1" d="M55.8,35.555A13.772,13.772,0,1,1,42.03,21.783,13.773,13.773,0,0,1,55.8,35.555Zm-3.443,0a10.329,10.329,0,1,0-10.33,10.33A10.341,10.341,0,0,0,52.36,35.555ZM14.486,14.9H7.6v6.886h6.886V14.9ZM7.6,32.112h6.886V25.225H7.6v6.886ZM17.929,21.783h6.887V14.9H17.929v6.886Zm0,10.329h6.887V25.225H17.929v6.886Zm-13.772,3.1V11.453H42.03V18.34h3.443V4.91a3.757,3.757,0,0,0-3.729-3.786H4.444A3.758,3.758,0,0,0,.713,4.91v30.3A3.762,3.762,0,0,0,4.444,39H24.815V35.555H4.444A0.326,0.326,0,0,1,4.156,35.212Zm30.988-13.43V14.9H28.258v6.886h6.886ZM47.2,35.555H42.03V30.39a1.721,1.721,0,0,0-3.443,0v6.887A1.72,1.72,0,0,0,40.309,39H47.2A1.722,1.722,0,0,0,47.2,35.555Z"/></svg>