<svg xmlns="http://www.w3.org/2000/svg" width="50" height="50" viewBox="0 0 50 50"><defs><style>.cls-1{fill:#fff;fill-rule:evenodd;}</style></defs><path id="shape" class="cls-1" d="M25.15,1A24.1,24.1,0,0,0,6.162,39.99l-1.72,8.2a1.092,1.092,0,0,0,.2.838,1.084,1.084,0,0,0,.892.07l7.61-3.076A24.121,24.121,0,1,0,25.15,1ZM25.2,37.423a2.9,2.9,0,1,1,3.08-2.9A3,3,0,0,1,25.2,37.423Zm2.428-9.371c0,1.3-1.243,1.981-2.487,1.981-1.214,0-2.428-.651-2.428-1.952,0-5.736,4.381-6.12,4.381-8.84,0-.976-1.036-1.567-2.25-1.567-1.628,0-2.4.5-2.546,1.714a2.541,2.541,0,0,1-2.784,2.1c-1.45,0-2.871-.8-2.871-2.425V18.828c0.355-3.548,3.079-6.386,8.171-6.386,4.944,0,8.409,2.927,8.409,6.622C33.223,25.244,27.627,24.918,27.627,28.052Z"/></svg>