<svg xmlns="http://www.w3.org/2000/svg" width="55" height="56" viewBox="0 0 55 56"><defs><style>.cls-1{fill:#FFFFFF;fill-rule:evenodd;}</style></defs><path id="shape" class="cls-1" d="M48.175,55H15.062a2.494,2.494,0,0,1-2.483-2.5V37.278h4.966V49.989H45.692V6.011H17.545V17.98H12.579V3.506A2.494,2.494,0,0,1,15.062,1H48.175a2.494,2.494,0,0,1,2.483,2.5V52.494A2.494,2.494,0,0,1,48.175,55ZM32.928,27.9a2.5,2.5,0,0,0-.274-1.123V26.641l-0.19-.191a2.506,2.506,0,0,0-.582-0.587l-6.964-7.024a2.467,2.467,0,0,0-3.511,0,2.519,2.519,0,0,0,0,3.542L24.4,25.394H2.483a2.5,2.5,0,0,0,0,5.009H24.158l-2.751,2.774a2.52,2.52,0,0,0,0,3.542,2.468,2.468,0,0,0,3.511,0l6.441-6.5A2.5,2.5,0,0,0,32.928,27.9Z"/></svg>