<svg xmlns="http://www.w3.org/2000/svg" width="102" height="97" viewBox="0 0 102 97"><defs><style>.cls-1{fill:#fff;fill-rule:evenodd;}</style></defs><path id="shape" class="cls-1" d="M79.062,95.743a4.305,4.305,0,0,1-2-.493L51,81.58,24.938,95.25a4.3,4.3,0,0,1-6.24-4.523l4.977-28.955L2.59,41.267a4.289,4.289,0,0,1,2.384-7.319l29.139-4.225L47.144,3.38A4.3,4.3,0,0,1,51,.988h0A4.3,4.3,0,0,1,54.856,3.38l13.03,26.343,29.139,4.225a4.289,4.289,0,0,1,2.384,7.319L78.324,61.772,83.3,90.726A4.3,4.3,0,0,1,79.062,95.743ZM14.834,41.19L31.3,57.2A4.285,4.285,0,0,1,32.534,61l-3.886,22.61L49,72.933a4.316,4.316,0,0,1,4,0L73.351,83.608,69.464,61A4.284,4.284,0,0,1,70.7,57.2L87.165,41.19l-22.752-3.3a4.3,4.3,0,0,1-3.238-2.347L51,14.974,40.825,35.544a4.3,4.3,0,0,1-3.238,2.347Z"/></svg>