<svg xmlns="http://www.w3.org/2000/svg" width="120" height="120" viewBox="0 0 120 120"><defs><style>.cls-1{fill:#9ea1a3;fill-rule:evenodd;}</style></defs><path id="shape" class="cls-1" d="M85.8,51.116L64.678,30.2l-0.015-.011a5.985,5.985,0,0,0-.908-0.734c-0.114-.075-0.239-0.124-0.357-0.19a5.915,5.915,0,0,0-.676-0.353c-0.173-.07-0.354-0.108-0.532-0.162a5.953,5.953,0,0,0-.584-0.174,6.17,6.17,0,0,0-1.167-.115l-0.021,0c-0.106,0-.206.025-0.311,0.03a6.115,6.115,0,0,0-.844.083c-0.167.032-.322,0.091-0.484,0.137a6.023,6.023,0,0,0-.634.192c-0.175.071-.334,0.167-0.5,0.254a5.824,5.824,0,0,0-.528.281,6.045,6.045,0,0,0-.6.47c-0.1.082-.2,0.143-0.294,0.232L34.459,51.055a5.786,5.786,0,0,0-.082,8.3,6.078,6.078,0,0,0,8.473.08L54.425,48.312V84.685a5.993,5.993,0,0,0,11.984,0V48.612l10.87,10.763a6.075,6.075,0,0,0,8.474.044A5.79,5.79,0,0,0,85.8,51.116Z"/></svg>