<svg xmlns="http://www.w3.org/2000/svg" width="557" height="178" viewBox="0 0 557 178"><defs><style>.cls-1{fill:#c35141;fill-rule:evenodd;}</style></defs><path id="shape" class="cls-1" d="M446.782,131.365a0.6,0.6,0,0,1-.588-0.479l-0.55-2.713a0.607,0.607,0,0,1,.024-0.324,37.749,37.749,0,0,1,4.807-8.28c0.682-.976,1.364-1.953,2-2.939,1.173-1.543,1.5-2.976.96-4.071A3.044,3.044,0,0,0,450.723,111a2.533,2.533,0,0,0-2.024.908,4.45,4.45,0,0,0-.459,3.781,0.608,0.608,0,0,1-.083.456,0.6,0.6,0,0,1-.384.259l-3.876.784a0.7,0.7,0,0,1-.12.011,0.6,0.6,0,0,1-.6-0.573c-0.191-4.546,1.322-7.119,2.624-8.473a7.393,7.393,0,0,1,5.371-2.3,7.19,7.19,0,0,1,6.665,4.332c1.019,2.4,1.617,7.451-5.094,14.995l7.31-1.591a0.612,0.612,0,0,1,.456.084,0.593,0.593,0,0,1,.259.382l0.758,3.736a0.6,0.6,0,0,1-.469.706L446.9,131.354A0.684,0.684,0,0,1,446.782,131.365Zm24.282-4.589c-3.587,0-8.179-2.75-9.312-10.5-1.13-4.338-.627-8.222,1.427-10.872a7.448,7.448,0,0,1,5.893-2.957c3.587,0,8.18,2.76,9.325,10.534,1.127,4.318.628,8.187-1.421,10.832A7.465,7.465,0,0,1,471.064,126.776Zm-2.229-19.849a1.85,1.85,0,0,0-1.451.779c-1.117,1.4-1.323,4.227-.55,7.56,0.824,4.751,2.871,6.9,4.426,6.9h0a1.894,1.894,0,0,0,1.485-.8c1.1-1.384,1.316-4.144.57-7.383C472.459,109.127,470.394,106.927,468.835,106.927Zm15.108,16.935a0.6,0.6,0,0,1-.587-0.479l-0.55-2.713a0.593,0.593,0,0,1,.023-0.323,37.721,37.721,0,0,1,4.805-8.277c0.682-.977,1.365-1.955,2.006-2.943,1.174-1.543,1.506-2.976.961-4.071a3.041,3.041,0,0,0-2.716-1.563,2.529,2.529,0,0,0-2.023.908,4.453,4.453,0,0,0-.461,3.781,0.6,0.6,0,0,1-.467.715l-3.877.783a0.6,0.6,0,0,1-.718-0.561c-0.191-4.546,1.323-7.119,2.626-8.473a7.385,7.385,0,0,1,5.368-2.3A7.189,7.189,0,0,1,495,102.682c1.02,2.405,1.617,7.451-5.1,14.993l7.311-1.591a0.611,0.611,0,0,1,.128-0.013,0.6,0.6,0,0,1,.328.1,0.591,0.591,0,0,1,.26.382l0.756,3.736a0.6,0.6,0,0,1-.468.706l-14.158,2.858A0.6,0.6,0,0,1,483.943,123.862Zm18.326-3.7a0.6,0.6,0,0,1-.588-0.479l-0.55-2.713a0.593,0.593,0,0,1,.025-0.323,37.662,37.662,0,0,1,4.8-8.271c0.683-.981,1.366-1.959,2.009-2.949,1.173-1.542,1.5-2.974.96-4.069a3.042,3.042,0,0,0-2.718-1.563,2.53,2.53,0,0,0-2.022.908,4.445,4.445,0,0,0-.459,3.779,0.606,0.606,0,0,1-.083.456,0.6,0.6,0,0,1-.384.259l-3.877.783a0.6,0.6,0,0,1-.719-0.561c-0.19-4.546,1.323-7.119,2.626-8.475a7.4,7.4,0,0,1,5.369-2.3,7.188,7.188,0,0,1,6.665,4.334c1.019,2.4,1.617,7.451-5.1,14.993l7.313-1.591a0.612,0.612,0,0,1,.456.084,0.593,0.593,0,0,1,.259.382l0.757,3.736a0.6,0.6,0,0,1-.469.706l-14.158,2.859A0.684,0.684,0,0,1,502.269,120.161ZM404.716,100a14.461,14.461,0,0,0-4.089-10.946c-1-1.55-2.48-3.851-4.583-4.131-1.32-1.7-4.043-1.952-6.01-2.289-1.658-.242-3.816-1.429-5.341-0.406-1.027-.831-2.843-0.191-4-0.012-1.214-.394-2.617.093-3.914-0.029,2.114-4.632,6.959-7.307,9.277-11.8a7.528,7.528,0,0,0,3.654-3.511c7.142-3.849-4.769-13.857-9.171-8.734-1.772-.084-3.286,1.372-4.894,1.733A13.81,13.81,0,0,0,368.9,61.5a5.118,5.118,0,0,0-1.121.411c-3.182-.613-7.389.895-10.943,0.469-3.9-1.226-5.373,5.112-2.295,6.873,1.512,2.941.943,4.952,5.232,4.443,3.24-.3,6.954.023,9.763-1.645,0.307,0.079.631,0.245,1,.315-0.5.707-1.35,1.513-1.366,2.405a5.542,5.542,0,0,0-.586,1.069c-1.268.255-2.264,2-2.773,3.081a40.789,40.789,0,0,0-6.793,6.935c-1.7,2.058-4.545,3.72-5.5,6.188-0.762,1.153-2.6,1.5-2.822,3.024a3.943,3.943,0,0,0-2.058,1.8,3.337,3.337,0,0,0-1.886,2.1c-2.992.974-5.135,6.686-1.36,7.753,1.385,0.48,2.342,1.755,3.717,2.286,2.3,0.918,4.942-.483,6.081-2.424,1.848-2.255,4.422-4.028,6.184-6.412,1-1,2.362-.953,3.655-1.688,1.595-1.021,2.743-2.135,4.585-2.619,5.5-1.933,10.991-3.124,16.732-2.541a3.875,3.875,0,0,0,2.249.7c3.658,2.22,4.546,5.2,3.559,9.184-0.875,3.464-2.781,5.663-5.339,8.1a2.649,2.649,0,0,0-2.462,1.264c-2.87,1.262-6.148,1.569-9.074,2.534-3.943.287-7.012,1-11.3,0.651a7.093,7.093,0,0,0-3.1,2.22c-0.355,2.654.859,6.294,3.451,7.32,0.95,0.9,2.8,2.421,4.419,1.6a3.659,3.659,0,0,0,2.083-.289c1.444,0.672,3.326-.05,4.7-0.327a12.209,12.209,0,0,0,8.047-1.763,5.211,5.211,0,0,0,4.1-1.5,4.537,4.537,0,0,0,4-1.893c1.229-.758,3.262-1.057,3.632-2.669,2.781-2.4,6.753-4.987,7.1-8.951,1.031-1.351,2.123-3.7,1.828-5.419C404.978,103.009,404.908,101.211,404.716,100Zm-285.994,1.68c-2.3,3.747-3.247,12.308,1.461,14.626a2.878,2.878,0,0,0,2.66,2.041c3.552,1.59,9.628,4.444,12.578.713,3.144-1.822,6.709-4.523,7.979-8.094,1.023-1.42,2.956-3.156,3.014-5.173a2.742,2.742,0,0,0,1.369-2.474c0.866-2.513,2.74-4.4,3.935-6.743a1.954,1.954,0,0,1,1.529-.432,2.883,2.883,0,0,0,2.545.465c1.264,1.465,3.912.752,5.666,1.213,1.4,0.117,2.909,1.5,4.331.934a11.265,11.265,0,0,0,1.007.766c-0.637,1.617-1.275,3.494-2.008,5.148-1.542.225-2.19,2.168-3.394,3.031-0.787,1.23-2.563,1.7-2.787,3.2a3,3,0,0,0-2,1.612c-4.352,1.238-11.722,5.312-5.611,9.833,0.934,1.987,4.388,4.087,6.278,2.29,1.6,0.677,2.871-1.182,4.231-1.679,1.271-.51,3.188-1.105,3.749-2.483a5.575,5.575,0,0,0,3.194-3.106,8.266,8.266,0,0,0,3.619-4.658c1.5-.563,1.673-2.589,2.32-3.867a15.208,15.208,0,0,0,2.591-6.1c1.012,0.159,2.357,1.57,3.532,1.46a7.343,7.343,0,0,0,3.73,1.634c0.8,1.468,3.262,1.4,4.183.238a2.261,2.261,0,0,0,2.227-2.066,2.168,2.168,0,0,0,.263-0.821c6.324-6.339-5.22-9.394-9.554-11.44a2.644,2.644,0,0,0-.95-1.388c0.79-1.6-.472-3.518.165-5.14,0.989-2.818.636-8.812-3.539-8.83-10.815-3.327-5.692,5.437-8.26,11.058a3.04,3.04,0,0,1-1.688.123,2.891,2.891,0,0,0-2.957-.645c-0.9-1.24-2.614-.509-3.732-0.734-1.467-.273-2.749-0.919-4.175-1.281,0.641-1.637,1.719-3.184,2.445-4.859A3.036,3.036,0,0,0,160,77.37c0.594-1.229,2.4-2.109,2.023-3.72,1.771-2.7,7.133-9.318,4.982-12.369-1.474-4.255-8.135-5.444-10.828-1.927a6.358,6.358,0,0,1-2.279,1.1c-1.614-.439-3.958.311-5.544,0.8-1.64-.937-3.892-0.089-5.7-0.563-1.093-1.095-4.067-.31-4.281,1.307-1.822.6-2.161,4-.365,5.149-0.065,3.237,3.813,7.076,7.521,5.4,1.128,0.934,2.857.331,4.173,0.119-1.11,2.619-2.54,4.993-3.055,7.733-1.452.925-1.789,3.15-2.724,4.427-0.848.978-2.551,0.651-3.21,1.861-2.452-.309-4.929,1.09-6.865,2.435-1.845.672-4.6,1.036-5.925,2.716-2.407.046-5.16,2.833-6.033,4.835-1.175.775-3.1,2.269-2.55,3.918A10.431,10.431,0,0,0,118.722,101.681Zm10.206,5.085a3.023,3.023,0,0,0,.108-1.517c2.064-4.367,4.13-6.052,9.04-6.018a6.7,6.7,0,0,0-2.142,3.72,2.676,2.676,0,0,0-1.625,2.468c-1.355.444-1.329,2.291-2.417,2.936a2.78,2.78,0,0,0-2.384-.53C129.126,107.619,128.6,107.367,128.928,106.766ZM235.063,79.733a2.034,2.034,0,0,0,.309,1.089,4.036,4.036,0,0,0,.314,2.713c-0.158,3.238-.324,7.186.8,10.281a2.88,2.88,0,0,0,.469,3.033c-0.5,1.954,1.11,3.794,1.487,5.673a3.12,3.12,0,0,0,.931,2.985c0.786,1.76,1.055,4.359,2.774,5.4a23.03,23.03,0,0,0,11.108,10.2c2.182-.281,4.714,1.156,6.421-0.494a2.909,2.909,0,0,0,3.066-1.628,17.331,17.331,0,0,0,6.372-7.292c1.078-1.741,3.246-4.081,3.25-6.1,4.163-5.079-4.454-11.429-9.411-9.183-3.2,3.313-2.7,8.663-6.378,11.539-1.48,1.082-1.9-1.384-3.248-1.622,0.021-2.037-2.658-3.093-2.955-4.877-0.087-2.867-2.254-5.674-2.621-8.6-0.713-2.16.514-4.71-.515-6.754a5.449,5.449,0,0,0,.008-4.454,7.013,7.013,0,0,0,.223-4.376c0.808-3.314.082-6.84,0.893-10.261,0.517-4.665-6.288-6.968-9.62-5.479-4.113,2.8-3.43,9.13-3.063,13.472C234.644,76.229,235.344,78.214,235.063,79.733Zm66.778,6.661c-2.117-3.693-3.49-8.909-7.1-11.528-2.238-2.624-5.909-9.221-9.932-7.8a5.917,5.917,0,0,0-3.281,1.334c-1.929-.007-3.176,1.917-3.472,3.731,0,2.186,2.091,3.761,3.23,5.358,1.813,2.39,3.376,5.148,5.35,7.337,2.521,3.591,3.12,8.182,4.765,12.108-0.158,2.207.71,4.268,0.682,6.515,1.231,1.778,5.153,3.094,6.479,1.357,4.381,0.115,6.872-4.006,5.321-7.994-0.718-2.324.412-5.629-1.551-7.381-0.136-.434-0.309-0.854-0.468-1.281A2.985,2.985,0,0,0,301.841,86.394ZM52.76,74.021a8.033,8.033,0,0,0-2.418-2.205A2.532,2.532,0,0,0,48.33,70.25c-3.678-2.58-5.934-6.339-8.475-9.98a5.373,5.373,0,0,0-2.715-3.844c-1.873.094-3.969,0.6-4.663,2.481-1.5.525-2.8,3.057-2,4.463a2.324,2.324,0,0,0,1.242,3.069c1,1.213,1.136,3.7,2.88,4.15a11.337,11.337,0,0,1,2.1,3.526c-3.735,3.8-9.052,9.081-7.719,14.9-1.233,2.028,1.076,4,1.943,5.543,0.06,2.983,3.7,4.956,5.582,6.949,1.81,1.408,2.1,4.152,4,5.392a7.918,7.918,0,0,0,1.066,3.987,16.12,16.12,0,0,0-1.148,2.854,2.936,2.936,0,0,0-1.825,1.3,31.755,31.755,0,0,0-3.368.735c-4.917-.8-13.071-7.052-13.293,2.014-0.172,2.645.974,6.766,4.064,7.2,1.575,2.336,6.433,2.482,8.888,1.892,1.464,0.7,3.3-.118,4.839-0.316,1.717-.137,3.915-0.232,5.108-1.717a2.563,2.563,0,0,0,2.709-1.555c1.616-.125,2.446-2.092,3.172-3.268,0.6-1.283,2.66-2.386,2.056-4.116,0.452-1.8,1.6-4.523.331-6.089a16.583,16.583,0,0,0-4.07-9.358c-0.91-1.644-1.841-4.2-3.887-4.892-0.286-.324-0.632-0.593-0.946-0.89A2.471,2.471,0,0,0,42.66,92.6a2.411,2.411,0,0,0-2.007-1.791,4.926,4.926,0,0,1-.58-5.991c0.946-.59,2.611-0.875,3.245-1.835a3.339,3.339,0,0,0,1.2-.123c3.8,1.572,9.355-.317,8.688-5.088A3.05,3.05,0,0,0,52.76,74.021ZM78.286,109.55l-0.035-.039a2.571,2.571,0,0,0-1.115-2.846c-0.764-1.565-.585-4.356-2.359-5.077-1.924-3.764-4.824-7.36-8.529-9.324-0.827-2.889-5.222-2.4-6.866-.674-5.454.123-3.937,7.876,0.441,8.615,0.83,1.4,2.5,2,3.285,3.464,0.423,0.765.685,2.385,1.741,2.621a9.691,9.691,0,0,1,2.012,4.263c0.021,0.917-.278,2.294.52,3.079a4.047,4.047,0,0,0,6.048,4.384,2.558,2.558,0,0,0,2.976-1.23C79.123,116.043,80.055,111.565,78.286,109.55Zm-55.862-7.5c1.221-1.123,2.029-2.449,1.367-4.122,0.186-1.711-1.645-2.5-2.523-3.626-2.425-4.508-7.71-.047-8.487,3.314-1.242.975-3.29,2.721-3.288,4.452A2.633,2.633,0,0,0,8,104.48c-0.558,1.071-2.329,1.646-2.366,3.022A3.056,3.056,0,0,0,4,109.646c-5,2.26-1.159,9.012,3.237,9.221,2.973,3.177,6.448-1.12,6.962-4.3a9.985,9.985,0,0,0,3.315-4.635A2.9,2.9,0,0,0,18.81,107.8,16.068,16.068,0,0,0,22.424,102.046ZM320.089,4.288c-6.83,4.77-14.559,7.778-22.031,11.182C262.8,28.941,224.93,22.32,188.664,17.51c-26.253-4.993-53.638,1.312-77.633,12.169-5.74,1.78-10.61,5.282-16.126,7.686-4.479,2.556-.713,9.654,3.907,7.405,4.3-1.738,8.937-4.418,13.087-6.6,33.484-14.4,54.47-16.681,90.262-10.621,31.113,4.967,64.412,7.981,94.583-3.031a106.474,106.474,0,0,0,27.759-13.1C329.173,8.636,324.686,1.355,320.089,4.288Zm-1.616,131.491c-26.3,17.314-58.7,21.144-89.471,18.5-18.312-1.9-36.571-5.644-54.907-6.726-23.062-1.6-46.433,4.865-67.145,14.724-4.568,2.075-9.538,4.068-13.6,6.819-3.577,2.056-1.822,7.905,2.23,7.746,5.576-2.014,11.2-5.38,16.608-8.033,11.88-5.342,24.524-8.763,37.064-11.623a61.09,61.09,0,0,0,10.121-1.316c20.325-1.635,40.012,4.152,60.248,5.493,23.725,3.658,48.218,2.743,71.373-3.8,11.073-3.671,22.179-8.093,31.9-14.663C327.522,140.123,323.1,132.841,318.473,135.779ZM415.6,65.25c1.461,5.864-8.876,18.736-4.031,19.413,2.931,1.035,4.784-.188,5.712-3.139l1.887,7.851c-3.226.938-8.324,0.669-6.085,5.65,0.334,3.954,15.335-2.3,17.187-2.023,1.263,3.009.587,11.446,6.208,8.673,3.524-.631-0.4-8.2-0.329-10.08L447.5,88.879c2.141-.468,1.479-2.959,1.026-4.44-0.543-3.854-11.882,1.455-13.8,1.212l-1.179-4.908c1.669-.971,10.734-0.922,9.688-4.407-0.008-6.377-7.875-1.632-11.1-1.452l-0.83-3.459,9.952-2.381c2.081-.456,1.524-2.854,1.057-4.314-0.166-4.111-18.971,3.24-20.758,2.878C423.831,63.88,416.556,61.278,415.6,65.25Zm13.242,21.81-3.832.917-1.18-4.909,3.833-.917ZM420,74.132l5.427-1.3,0.831,3.458L418.7,78.1C419.171,76.818,419.612,75.474,420,74.132ZM479.4,52.1c0.123-.907-12.754,2.745-13.162,2.691-2.9.473,1.2,9.441,1.085,10.934l-3.664.877c2.188-2.668,1.219-7.96-.279-10.621-0.767-.762-5.225.927-6.115,0.971-0.219-2.724-1.222-3.067-4.041-2.362-1.717.432-1.014,2.3-.761,3.511-1.253.662-7.035,0.566-6.311,3.077,0.076,4.16,3.8,2.237,6.243,1.737-0.225,3.82-4.489,5.032-6.2,7.867-0.136,1.335,2.079,1.891,2.916,2.437,1.85,0.66,3.431-1.684,4.635-2.669-0.5-.212,3.5,15.128,3.476,15.4,0.573,2.511,3.378,1.965,5.182,1.372-1.467,2.484-7.61,3.847-9.865,6.854,0.032,1.66,3.426,2.807,4.761,2.566,6.886-4.044,12.645-7.858,11.065-10.847l4.313-1.032c-2.292,5.084,8.285,4.125,14.265,4.7,1.429-.235,3.645-3.119,2.952-4.563-3.655-1.638-10.145-.013-12.662-1.224,1.988-.544,6.348-0.8,5.531-3.936-0.113-.187-3.627-16.083-4.024-15.417,1.205-.36,4.008-0.457,3.5-2.406C481.916,61.316,480.311,52.2,479.4,52.1Zm-3.272,5.169,0.69,2.874-5.534,1.324-0.691-2.873ZM455.654,68.514a2.52,2.52,0,0,0-.473.217,14.268,14.268,0,0,0,2.336-7.045l2.367-.566c1.265,4.2-3.489,2.436-1.426,6.723Zm2.7,3.605,17.088-4.09,0.34,1.414-17.088,4.09Zm1.487,6.189L459.5,76.894l17.088-4.09,0.34,1.414Zm1.062,4.418-0.339-1.413,17.088-4.09,0.339,1.414Zm37.317-24.832a0.094,0.094,0,0,1-.011.019l-2.491-10.373c-0.453-2-2.748-1.425-4.158-.991-3.7.538,1.509,11.469,1.284,13.31-2.815-4.109-6.383-9.22-9.206-3.537,0.37,2.651,3.309,3.951,5.031,7.824,1.284,2.3,3.86.168,4.912-1.223l0.747,3.1c-2.459,4.273-7.572,6.5-5.34,9.479,3.073,3.377,4.242,1.393,7.026-2.458,1.05,1.564,1.4,13.341,4.915,12.176,1.23-.273,3.242-0.538,3.234-2.2,6.665,1.719,7.986-9.263,9.035-14.55,2.674,3.983,12.284,15.781,15.223,6.238-4.721-4.157-10.96-7.114-14.284-15.409,2.773-1.2,11.133-.582,8.5-5.851-0.583-3.447-8.736.657-10.542,0.537-0.12-.619-1.376-5.687-1.537-6.42-0.411-1.534-.48-5.131-2.98-4.5-6.7.387-1.515,6.885-1.006,12.246C505.547,55.76,498.639,56.671,498.216,57.894Zm2.521,4.62,6.791-1.626c0.867,7.534-.511,13.325-4.279,18.016l-4-16.634A1.935,1.935,0,0,0,500.737,62.514ZM517.3,51.275c1.624,1.809,3.41-.4,4.288-1.777,2.189-3.092-8.759-9.018-9.59-6.64C507.675,47.008,514.977,47.934,517.3,51.275ZM474.1,23.841c-2.041-1.486-5.357-.541-7.769-0.1-3.47.4-7.054,0.488-10.12,1.94-1.29-1.274-18.583,4.516-8.9,5.485,0.05,2.811,10.344-1.826,12.6-2.743,0.972,1.7,3.063-.082,4.426-0.15a4.269,4.269,0,0,0,3.242.431c2.065,0.056,4.067.1,6.146,0C477.653,29.751,478.253,24.666,474.1,23.841ZM455.149,146.922c-0.844.2-1.129-.35-1.784-0.951a4.747,4.747,0,0,0-5.082-1.535c-0.433-.88-1.443-0.339-2.145-0.859-0.635-.724-2.134-0.633-3.187-0.931-0.619-1.229-1.784-1.878-2.984-1.082-3.188-1.65-4.784-5.712-9.1-5.01-2.375,1.4,1.49,4.291,2.506,4.657,1.622,0.4,1.758,2.246,3.171,2.559,1.128,0.037,1.919.783,3.234,0.717,2.039,2.435,6.606,5.565,9.809,5.288,1.863-.139,3.437,1.733,5.631,1.684C460.689,152.777,459.3,146.159,455.149,146.922ZM423.422,122.79c-4.352-2.759-5.186.933-2.824,6.241l4.032,2.814,2.652-.579A10.677,10.677,0,0,0,423.422,122.79ZM555.855,79.481c-1.973-3.118-.132-6.171-1.957-9.177-0.063-1.385,0-2.408-1-3.667,0.081-1.467.234-2.851-1-3.763-0.621-2.419-1.41-6.19-2.368-7.365a2.319,2.319,0,0,0-.8-2.186,12.274,12.274,0,0,0-2.41-4.182,2.269,2.269,0,0,0-.8-2.12,11.441,11.441,0,0,0-2.387-4.206,2.35,2.35,0,0,0-1.574-2.509c0.241-1.556-.749-2.688-2.332-3.328a2.135,2.135,0,0,0-.8-1.806,2.444,2.444,0,0,0-1.971-1.954c-1.038-3.3-5.264-5.614-7.218-8.287a1.986,1.986,0,0,0-2.045-1.871c-0.664-1.58-2.3-3.563-4.357-3.349-0.884-1.83-4.873-4.8-5.843-4.667a5.123,5.123,0,0,0-2.334-1.9,90.86,90.86,0,0,0-12.809-6.741,2.052,2.052,0,0,0-1.475-.642c-2.588-1.161-7.173-1.209-10.02-2.192-2.742-.744-5.415-1.684-8.3-0.548-3.566-.866-13.791-2.693-18.781-1.107C455.381-3,422.111,11.349,416.28,18.9c-4.407,2.6-9.076,7.8-12.015,11.33-2.876-.148-2.478,2.9-3.351,4.634-1.684,1.446-2.886,3.649-4.241,5.346a4.65,4.65,0,0,0,3.5-.048,4.235,4.235,0,0,0,3.6-.511c0.463-.01,1.569-0.558,1.512-0.937a7.334,7.334,0,0,0,2.756-2.2,3.038,3.038,0,0,0,1.695-2.3,1.859,1.859,0,0,0,.534-0.453c2.118-.481,2.893-3.083,3.993-4.421,2.1-2.413,4.26-3.77,5.938-5.873,2,0.178,4.517-2.166,5.439-3.539,1.334,0.155,2.154-.912,2.822-1.849,2.484-.184,4.64-2.335,6.632-3.772a3.365,3.365,0,0,0,3.819-1.737c13.653-4.322,27.927-4.824,42.153-4.753,3.192,2.036,10.03,2.544,12.9,3.924a84.672,84.672,0,0,0,11.07,4.125c2.631,2.555,3.894,3.609,6.714,4.563,5.5,4.784,13.119,9.2,17.147,14.656-0.284,1.632,1.675,2.726,2.666,3.612,1.033,1.4,1.547,2.737,2.787,3.956a2.6,2.6,0,0,0,1.659,2.616A2.282,2.282,0,0,0,536.7,46.4a2.637,2.637,0,0,0,2.1,3.072c0.448,0.969.391,2.367,1.526,2.8,6.286,14.481,9.279,27.344,9.146,44.12-2.108,5.559-1.588,12-3.331,17.619a72.779,72.779,0,0,0-5.223,12.274,3.515,3.515,0,0,0-1.231,2.217c-1.312,1.544-1.821,3.778-2.87,5.39a2.5,2.5,0,0,0-1.868,2.943c-1.219,1.321-4.11,2.476-3.357,4.553-0.694.854-1.669,1.58-2.3,2.43-1.947.35-2.008,2.22-2.577,3.6-1.615.964-4.075,1.225-4.588,4.061-19.408,8.241-6.769,16.236-.831,6.56a46.881,46.881,0,0,0,11.568-9.639c2.448-2.087,4.661-3.558,5.538-6.068a3.256,3.256,0,0,0,2.212-3.063c1.318-.305,2.107-2.136,2.02-3.21,2.793-1.353,3.628-4.217,4.294-6.977,1.472-2.612,2.052-5.354,3.741-8.023,1.186-1.007,1.145-2.943,1.159-3.962C557,105.415,556.434,92.842,555.855,79.481Zm-79.228,68.7c-4.161,1.569-9.214-2.2-12.77,1.494-1.181,2.41,2.1,3.7,3.124,3.434,0.772,1.08,1.984.543,3.011,0.217,4.554-1.021,7.982.634,13.715-1.841C486.179,147.7,479.242,147,476.627,148.185Zm51.859-42.752a8.819,8.819,0,0,1-.036,1.059c-1.794.961-2.491,3.657-2.032,5.691-1.978,3.838-6.1,6.109-6.678,10.879-1.531.876-1.585,2.606-3.222,3.068a1.081,1.081,0,0,0-.776,1.315c0.037,1.437-2.067,2.056-1.322,4.29-3.059.1-5.716,2.7-7.033,4.779-2.057.43-3.293,2.124-5.031,2.9-0.848.016-1.98,0.507-1.766,1.55-2.709.907-5.946,2.77-4.06,6.139,6,0.428,18-9.482,19.5-14.435,2.653-.082,2.569-2.3,3.494-3.658,0.583-.5,1.52-0.56,2.111-1.369,5.214-7.652,9.21-15.291,10.818-24.59,1.7-2.192,1.3-6.052,1.789-8.953,0.333-2.538.892-6.757-3.642-4.644a1.085,1.085,0,0,0-.76,1.389C530.931,95.51,527.771,100.521,528.486,105.433ZM423.982,49.2a1.714,1.714,0,0,0,.009-0.18c1.639-.689,1.876-1.728,2.911-2.794a1.382,1.382,0,0,0,1.175-1.187c4.69-2.928,7.173-6.348,12.563-8.642a1.089,1.089,0,0,0,.566-1.422c-2.434-4.361-6.713-.738-9.034,1.051-1.156.932-3.444,0.792-3.789,2.5a13.2,13.2,0,0,0-4.361,6.037c-4.244,1.647-2.482,4.061-5.182,6.419a1.081,1.081,0,0,0-.281,1.4c0.978,1.669,4.006,1.8,3.272-.639C422.69,51.167,423.866,50.393,423.982,49.2ZM494.73,30a1.42,1.42,0,0,0-.7-0.032c-2.68-2.081-10.23-6.09-13.135-3.511a1.088,1.088,0,0,0,.655,1.888c3.123,0.674,8.607,4.672,11.865,4.146C495.335,36,498,31.416,494.73,30Zm14.359,132.4c-2.367-.832-5.562-0.554-6.818,1.571-11.217,2.055-22.486,4.671-33.816,4.667-6.131.313-10.936-2.387-15.747-1.252a3.2,3.2,0,0,0-3.32-2.165c-5.2-1.209-7.153-3.46-11.977-4.689-3.569-.676-6.1-3.946-9.594-3.919a5.644,5.644,0,0,0-3.484-2.055c-3.892-4.238-8.377-8.183-12.18-12.42-2.292-.236-4.506,1.28-6.477,2.251a102.086,102.086,0,0,0,19.07,15.721,22.721,22.721,0,0,0,10.275,6.491c1.239,1.8,3.709,2.022,5.664,2.519,1.483,1.295,3.874,1.514,5.516,2.064a4.162,4.162,0,0,0,4.906.585c4.651,1.906,10,2.63,15.025,3a2.124,2.124,0,0,0,3.252-.4c8.125,1.933,20.5-1.319,26.708-3.1,1.852-.267,3.945-0.485,5.228-1.626C504.224,169.167,513.631,166.328,509.089,162.4Zm-66.02,8.205a0.216,0.216,0,0,0,.027,0,0.326,0.326,0,0,1-.033,0h0.006Z"/></svg>